<svg fill="#F6F6F6" height="512pt" viewBox="0 0 511 512" width="512pt" xmlns="http://www.w3.org/2000/svg"><path d="m500.988281 136.421875-124.96875-124.972656c-7.386719-7.382813-17.203125-11.449219-27.648437-11.449219-10.445313 0-20.261719 4.066406-27.648438 11.453125-12.71875 12.71875-14.816406 32.085937-6.316406 47.007813l-35.144531 92.730468-49.3125 58.519532c-7.363281-7.261719-17.101563-11.265626-27.453125-11.265626-10.445313 0-20.261719 4.066407-27.648438 11.453126-11.488281 11.488281-14.316406 28.40625-8.488281 42.570312l-18.886719 18.882812c-8.328125-1.765624-16.832031-2.660156-25.382812-2.660156-32.496094 0-63.042969 12.652344-86.015625 35.625-47.433594 47.4375-47.433594 124.617188 0 172.050782 22.980469 22.980468 53.53125 35.632812 86.027343 35.632812 32.492188 0 63.042969-12.652344 86.023438-35.632812 29.277344-29.28125 41.503906-71.261719 32.964844-111.398438l18.863281-18.867188c4.675781 1.933594 9.730469 2.949219 14.945313 2.949219 10.441406 0 20.261718-4.066406 27.644531-11.453125 15.179687-15.183594 15.238281-39.84375.1875-55.105468l58.515625-49.3125 92.714844-35.144532c5.839843 3.34375 12.472656 5.136719 19.378906 5.136719 10.445312 0 20.261718-4.066406 27.652344-11.453125 15.242187-15.25 15.238281-40.054688-.003907-55.296875zm-287.121093 213.34375c-3.875 3.871094-5.328126 9.546875-3.792969 14.804687 9.390625 32.195313.515625 66.902344-23.164063 90.585938-17.3125 17.308594-40.328125 26.84375-64.808594 26.84375-24.484374 0-47.5-9.535156-64.8125-26.847656-35.738281-35.734375-35.738281-93.886719 0-129.625 17.304688-17.304688 40.320313-26.835938 64.800782-26.835938 8.742187 0 17.414062 1.234375 25.78125 3.675782 5.257812 1.535156 10.933594.082031 14.804687-3.792969l22.777344-22.773438 51.1875 51.1875zm67.464843-33.382813c-1.71875 1.71875-4.003906 2.667969-6.433593 2.667969-2.433594 0-4.71875-.949219-6.4375-2.667969l-72.402344-72.402343c-3.546875-3.546875-3.546875-9.320313 0-12.867188 1.71875-1.71875 4.003906-2.664062 6.4375-2.664062 2.429687 0 4.714844.945312 6.433594 2.660156l11.332031 11.332031c.007812.011719.015625.023438.027343.03125l49.679688 49.679688c.015625.019531.039062.035156.058594.054687l11.304687 11.304688c3.546875 3.546875 3.546875 9.324219 0 12.871093zm66.890625-110.351562c-1.585937.601562-3.054687 1.464844-4.351562 2.558594l-62.425782 52.609375-30.203124-30.203125 52.609374-62.429688c1.089844-1.296875 1.953126-2.765625 2.554688-4.351562l30.722656-81.058594 92.152344 92.152344zm131.554688-35.527344c-1.71875 1.71875-4.003906 2.667969-6.433594 2.667969-2.433594 0-4.71875-.949219-6.4375-2.667969l-124.972656-124.96875c-3.546875-3.546875-3.546875-9.320312.003906-12.871094 1.71875-1.71875 4.003906-2.664062 6.433594-2.664062 2.429687 0 4.714844.945312 6.433594 2.664062l124.96875 124.96875c3.550781 3.550782 3.550781 9.324219.003906 12.871094zm0 0"/></svg>